<svg id="Layer_1" data-name="Layer 1" xmlns="http://www.w3.org/2000/svg" viewBox="0 0 228.05 57.44"><defs><style>.cls-1{fill:#1d1d1b;}</style></defs><path class="cls-1" d="M70.43,102.79H85.64v1.43h-2v11.56h2v1.43h-6v-1.43h2.12V104.22H74.32v11.56h2.12v1.43h-6v-1.43h2V104.22h-2Zm31.06,12.77a5.91,5.91,0,0,1-2.3,1.47,8.9,8.9,0,0,1-3.07.5,8.2,8.2,0,0,1-3.93-.88,5.94,5.94,0,0,1-2.49-2.59,8.9,8.9,0,0,1-.86-4,9.66,9.66,0,0,1,.5-3.19,6.46,6.46,0,0,1,1.45-2.4,6,6,0,0,1,2.3-1.51,8.75,8.75,0,0,1,3-.5,8.63,8.63,0,0,1,3,.51,6.11,6.11,0,0,1,2.3,1.51,6.45,6.45,0,0,1,1.44,2.39,9.66,9.66,0,0,1,.5,3.19,9.76,9.76,0,0,1-.49,3.19A6.18,6.18,0,0,1,101.49,115.56Zm-.14-5.56a7.9,7.9,0,0,0-.36-2.46,5.77,5.77,0,0,0-1.06-1.9,4.72,4.72,0,0,0-1.67-1.22,5.69,5.69,0,0,0-4.29,0,4.74,4.74,0,0,0-1.65,1.22,5.72,5.72,0,0,0-1.06,1.91A7.92,7.92,0,0,0,90.9,110a7.39,7.39,0,0,0,.63,3.16,4.83,4.83,0,0,0,1.83,2.08,5.13,5.13,0,0,0,2.76.74,5.42,5.42,0,0,0,2.17-.43,4.68,4.68,0,0,0,1.65-1.2,5.78,5.78,0,0,0,1-1.89A7.85,7.85,0,0,0,101.35,110Zm11.45-.57,5.86-5.21h1.12v-1.43h-5.46v1.43h1.75l-5.6,5.1v-5.1h2.14v-1.43h-6.07v1.43h2v11.56h-2v1.43h6.07v-1.43h-2.14v-6.33l5.71,6.33h-1.86v1.43h5.83v-1.43h-1.49Zm21.28-3.8a4.85,4.85,0,0,1,.2,1.38,4.45,4.45,0,0,1-.58,2.31,3.85,3.85,0,0,1-1.67,1.52,5.62,5.62,0,0,1-2.54.53h-3.05v4.41H129v1.43h-6.44v-1.43h2V104.22h-2v-1.43H129a11.8,11.8,0,0,1,2.19.16,4.09,4.09,0,0,1,1.44.6,3.38,3.38,0,0,1,.89.88A4,4,0,0,1,134.08,105.63Zm-1.79,1.43a2.66,2.66,0,0,0-.82-2.11,3.46,3.46,0,0,0-2.38-.73h-2.65v5.64h2.65a4.1,4.1,0,0,0,2.34-.63A2.49,2.49,0,0,0,132.29,107.06Zm18.17,8.5a6,6,0,0,1-2.31,1.47,8.89,8.89,0,0,1-3.06.5,8.22,8.22,0,0,1-3.94-.88,5.94,5.94,0,0,1-2.49-2.59,8.9,8.9,0,0,1-.86-4,9.66,9.66,0,0,1,.5-3.19,6.6,6.6,0,0,1,1.45-2.4,6,6,0,0,1,2.3-1.51,8.77,8.77,0,0,1,3-.5,8.58,8.58,0,0,1,3,.51,6.11,6.11,0,0,1,2.3,1.51,6.45,6.45,0,0,1,1.44,2.39,9.66,9.66,0,0,1,.5,3.19,9.5,9.5,0,0,1-.49,3.19A6.29,6.29,0,0,1,150.46,115.56Zm-.14-5.56a7.89,7.89,0,0,0-.37-2.46,5.77,5.77,0,0,0-1.06-1.9,4.77,4.77,0,0,0-1.66-1.22,5.38,5.38,0,0,0-2.14-.42,5.29,5.29,0,0,0-2.15.42,4.77,4.77,0,0,0-1.66,1.22,5.72,5.72,0,0,0-1.06,1.91,7.92,7.92,0,0,0-.36,2.45,7.39,7.39,0,0,0,.63,3.16,4.83,4.83,0,0,0,1.83,2.08,5.14,5.14,0,0,0,2.77.74,5.41,5.41,0,0,0,2.16-.43,4.51,4.51,0,0,0,1.65-1.2,5.78,5.78,0,0,0,1-1.89A7.85,7.85,0,0,0,150.32,110Zm17,1.43a4.05,4.05,0,0,1-.18,3.77,4.1,4.1,0,0,1-1.62,1.42,5.4,5.4,0,0,1-1.39.46,11.73,11.73,0,0,1-1.9.13h-6.72v-1.43h2V104.22h-2v-1.43h7a9.08,9.08,0,0,1,2.33.23,3.14,3.14,0,0,1,1.4.85,3.38,3.38,0,0,1,1,2.49q0,2.56-2.85,3.26a4.41,4.41,0,0,1,1.78.61A3,3,0,0,1,167.33,111.43ZM159.45,109h3a3.23,3.23,0,0,0,2.12-.63,2.21,2.21,0,0,0,.75-1.78,2.17,2.17,0,0,0-.73-1.73,2.92,2.92,0,0,0-2-.64h-3.16Zm6.27,4a2.36,2.36,0,0,0-.39-1.36,2.51,2.51,0,0,0-1.1-.89,4.1,4.1,0,0,0-1.66-.31h-3.12v5.29h3a4,4,0,0,0,1.69-.34,2.57,2.57,0,0,0,1.16-1A2.6,2.6,0,0,0,165.72,113.05Zm16.23.89a4,4,0,0,1-.76,1,3.66,3.66,0,0,1-2.63,1,5.26,5.26,0,0,1-2.13-.42,4.69,4.69,0,0,1-1.67-1.19,5.54,5.54,0,0,1-1.07-1.91,7.84,7.84,0,0,1-.36-2.43,8.48,8.48,0,0,1,.35-2.5,5.52,5.52,0,0,1,1-1.92,4.67,4.67,0,0,1,1.63-1.21,5.2,5.2,0,0,1,2.11-.42,4.46,4.46,0,0,1,2.83.91,3.3,3.3,0,0,1,.91,1,6.76,6.76,0,0,1,.51,1.69l.05.28h1.68v-5.1h-1.6l0,1.65a7.16,7.16,0,0,0-1.37-1.16,5.29,5.29,0,0,0-1.5-.65,7.46,7.46,0,0,0-1.76-.2,7.31,7.31,0,0,0-2.85.53,6,6,0,0,0-2.22,1.54,7.08,7.08,0,0,0-1.41,2.44,9.53,9.53,0,0,0-.5,3.14,9.25,9.25,0,0,0,.5,3.1,6.18,6.18,0,0,0,1.45,2.35,6.31,6.31,0,0,0,2.3,1.47,8.52,8.52,0,0,0,3,.51,7.33,7.33,0,0,0,3.12-.61,4.74,4.74,0,0,0,2.06-1.77,5.73,5.73,0,0,0,.85-2.78h-2.05A8.77,8.77,0,0,1,182,113.94Zm12.38-4.51,5.85-5.21h1.13v-1.43h-5.47v1.43h1.75l-5.59,5.1v-5.1h2.13v-1.43h-6.07v1.43h2v11.56h-2v1.43h6.07v-1.43H192v-6.33l5.7,6.33h-1.86v1.43h5.84v-1.43h-1.5Zm13.74,5.88V104.22h2v-1.43h-5.92v1.43h2v11.56h-2v1.43h4.64l7.09-12.51v11.08h-2v1.43h5.86v-1.43h-2V104.22h2v-1.43h-4.64ZM227.91,101a5.24,5.24,0,0,0,2.59.5,5.15,5.15,0,0,0,2.61-.5,2.64,2.64,0,0,0,1.32-2.2h-2a1.78,1.78,0,0,1-.69,1,1.92,1.92,0,0,1-2.4,0,1.87,1.87,0,0,1-.71-1h-2a2.93,2.93,0,0,0,.41,1.28A2.59,2.59,0,0,0,227.91,101Zm10.37,3.2v-1.43h-4.6l-7.2,12.84V104.22h2.1v-1.43h-5.86v1.43h1.88v11.56h-1.88v1.43h4.54l7.13-13v11.54h-2v1.43h5.9v-1.43h-1.86V104.22ZM76.66,135.35l5.85-5.2h1.13v-1.43H78.17v1.43h1.75l-5.6,5.1v-5.1h2.14v-1.43H70.39v1.43h2v11.56h-2v1.43h6.07v-1.43H74.32v-6.33L80,141.71H78.17v1.43H84v-1.43H82.51Zm21.55,2a4.05,4.05,0,0,1-.18,3.77,4.1,4.1,0,0,1-1.62,1.42A5.4,5.4,0,0,1,95,143a11.73,11.73,0,0,1-1.9.13H86.4v-1.43h2V130.15h-2v-1.43h7a9.08,9.08,0,0,1,2.33.23,3.14,3.14,0,0,1,1.4.85,3.36,3.36,0,0,1,1,2.49q0,2.57-2.86,3.26a4.46,4.46,0,0,1,1.79.61A3,3,0,0,1,98.21,137.36Zm-7.88-2.44h3a3.26,3.26,0,0,0,2.11-.62,2.44,2.44,0,0,0,0-3.51,2.92,2.92,0,0,0-2-.64H90.33ZM96.6,139a2.36,2.36,0,0,0-.39-1.36,2.57,2.57,0,0,0-1.1-.89,4.1,4.1,0,0,0-1.66-.31H90.33v5.29h3a4,4,0,0,0,1.69-.34,2.57,2.57,0,0,0,1.16-1A2.6,2.6,0,0,0,96.6,139Zm19.62,2.73h1.56v1.43H112v-1.43H114l-1.24-3.22h-6.5l-1.34,3.22h2.14v1.43H101.4v-1.43H103l5.62-13h2.16Zm-4-4.73-2.62-6.2-2.63,6.2Zm19.52-5.43a4.64,4.64,0,0,1,.21,1.39,4.46,4.46,0,0,1-.59,2.31,3.85,3.85,0,0,1-1.67,1.52,5.58,5.58,0,0,1-2.53.53h-3.06v4.41h2.55v1.43h-6.44v-1.43h2V130.15h-2v-1.43h6.42a11.83,11.83,0,0,1,2.19.15,4.31,4.31,0,0,1,1.44.61,3.38,3.38,0,0,1,.9.87A4.45,4.45,0,0,1,131.7,131.55ZM129.92,133a2.66,2.66,0,0,0-.83-2.11,3.46,3.46,0,0,0-2.38-.73h-2.65v5.64h2.65a4.08,4.08,0,0,0,2.34-.63A2.5,2.5,0,0,0,129.92,133Zm5,.36h1.77v-3.2h3.65v11.56H138v1.43h6.63v-1.43h-2.36V130.15h3.68v3.2h1.77v-4.63H134.89Zm29.77,8.36h1.56v1.43h-5.81v-1.43h2.05l-1.23-3.22h-6.51l-1.34,3.22h2.14v1.43h-5.68v-1.43h1.58l5.62-13h2.16Zm-4-4.73-2.61-6.2-2.64,6.2Zm10.5-6.83h1.95v.17c0,.29-.08,1.14-.15,2.56-.08,1.66-.21,3.39-.41,5.19q-.18,1.4-.39,2.49c-.19.85-.52,1.28-1,1.28s-1-.78-1-2.33h-1.56v.19a5.23,5.23,0,0,0,.69,2.78,2.13,2.13,0,0,0,1.86,1,2.28,2.28,0,0,0,1.44-.47,3.29,3.29,0,0,0,1-1.46,11.58,11.58,0,0,0,.64-2.6c.22-1.47.45-3.58.71-6.34l.18-2.23v-.19h4.71v11.54h-2.08v1.45h5.92v-1.45h-1.92V130.15h1.92v-1.43H171.12ZM58.38,94.8v32.33a1.12,1.12,0,0,1-.32.77l-7.71,7.69v0h0l-8,8v0h0l-7.27,7.26a1.06,1.06,0,0,1-.76.31,1.07,1.07,0,0,1-.76-.31l-23-22.95a1.12,1.12,0,0,1-.32-.77V94.8a1.08,1.08,0,0,1,1.08-1.08h46A1.08,1.08,0,0,1,58.38,94.8Zm-2.15,29.72V97.41l-5.88,5.92v15.26ZM42.36,108.34l5.84-5.89V95.87H42.36Zm8-8.06,4.37-4.41H50.35ZM42.8,111l5.4,5.46V105.5Zm-2.59,31.73V111h0V95.87H12.38v30.82L34.3,148.57Zm2.15-2.15,5.84-5.83V119.47l-5.84-5.9Zm8-8,5.43-5.42-5.43-5.49Z" transform="translate(-10.23 -93.72)"/></svg>