<svg id="Layer_1" data-name="Layer 1" xmlns="http://www.w3.org/2000/svg" viewBox="0 0 226.77 57.44"><defs><style>.cls-1{fill:#1d1d1b;}</style></defs><path class="cls-1" d="M69.16,98.77H84.37v1.43h-2v11.56h2v1.42h-6v-1.42h2.12V100.2H73.05v11.56h2.12v1.42h-6v-1.42h2V100.2h-2Zm31.06,12.77a6,6,0,0,1-2.3,1.47,8.94,8.94,0,0,1-3.07.5,8.15,8.15,0,0,1-3.93-.89,5.83,5.83,0,0,1-2.5-2.58,8.9,8.9,0,0,1-.85-4.05,9.41,9.41,0,0,1,.5-3.19,6.71,6.71,0,0,1,1.44-2.41,6.21,6.21,0,0,1,2.3-1.5,8.58,8.58,0,0,1,3-.51,8.67,8.67,0,0,1,3.05.52,6.38,6.38,0,0,1,2.3,1.5,6.7,6.7,0,0,1,1.43,2.4,9.41,9.41,0,0,1,.5,3.19,9.77,9.77,0,0,1-.48,3.19A6.39,6.39,0,0,1,100.22,111.54Zm-.14-5.56a7.57,7.57,0,0,0-.37-2.46,5.5,5.5,0,0,0-1.06-1.9A4.56,4.56,0,0,0,97,100.4a5.69,5.69,0,0,0-4.29,0,4.61,4.61,0,0,0-1.65,1.22A5.46,5.46,0,0,0,90,103.53a7.63,7.63,0,0,0-.37,2.45,7.25,7.25,0,0,0,.64,3.16,4.74,4.74,0,0,0,1.82,2.08,5.18,5.18,0,0,0,2.77.73,5.4,5.4,0,0,0,2.16-.42,4.42,4.42,0,0,0,1.65-1.21,5.3,5.3,0,0,0,1-1.88A7.65,7.65,0,0,0,100.08,106Zm11.45-.58,5.86-5.2h1.12V98.77H113v1.43h1.75l-5.59,5.1v-5.1h2.14V98.77h-6.08v1.43h2v11.56h-2v1.42h6.08v-1.42H109.2v-6.33l5.7,6.33H113v1.42h5.84v-1.42h-1.49Zm21.27-3.8A4.64,4.64,0,0,1,133,103a4.48,4.48,0,0,1-.59,2.31,3.8,3.8,0,0,1-1.67,1.52,5.72,5.72,0,0,1-2.53.53h-3.06v4.41h2.55v1.42h-6.43v-1.42h2V100.2h-2V98.77h6.41a12,12,0,0,1,2.2.15,4.15,4.15,0,0,1,1.43.61,3.38,3.38,0,0,1,.9.87A4.17,4.17,0,0,1,132.8,101.6ZM131,103a2.64,2.64,0,0,0-.82-2.11,3.49,3.49,0,0,0-2.39-.73h-2.65v5.64h2.65a4.08,4.08,0,0,0,2.34-.63A2.5,2.5,0,0,0,131,103Zm18.16,8.5a6,6,0,0,1-2.3,1.47,8.94,8.94,0,0,1-3.07.5,8.15,8.15,0,0,1-3.93-.89,5.83,5.83,0,0,1-2.5-2.58,8.9,8.9,0,0,1-.85-4.05,9.66,9.66,0,0,1,.5-3.19,6.71,6.71,0,0,1,1.44-2.41,6.24,6.24,0,0,1,2.31-1.5,8.52,8.52,0,0,1,3-.51,8.63,8.63,0,0,1,3.05.52,6.29,6.29,0,0,1,2.3,1.5,6.72,6.72,0,0,1,1.44,2.4,9.67,9.67,0,0,1,.49,3.19,9.77,9.77,0,0,1-.48,3.19A6.39,6.39,0,0,1,149.18,111.54ZM149,106a7.57,7.57,0,0,0-.37-2.46,5.34,5.34,0,0,0-1.06-1.9A4.56,4.56,0,0,0,146,100.4a5.69,5.69,0,0,0-4.29,0,4.61,4.61,0,0,0-1.65,1.22,5.46,5.46,0,0,0-1.06,1.91,7.63,7.63,0,0,0-.37,2.45,7.39,7.39,0,0,0,.64,3.16,4.7,4.7,0,0,0,1.83,2.08,5.13,5.13,0,0,0,2.76.73,5.4,5.4,0,0,0,2.16-.42,4.54,4.54,0,0,0,1.66-1.21,5.44,5.44,0,0,0,1-1.88A7.65,7.65,0,0,0,149,106Zm17,1.42a3.84,3.84,0,0,1,.37,1.74,3.7,3.7,0,0,1-.56,2,4,4,0,0,1-1.62,1.42,5.34,5.34,0,0,1-1.38.46,12,12,0,0,1-1.9.12h-6.72v-1.42h2V100.2h-2V98.77h7a9.22,9.22,0,0,1,2.34.23,3.14,3.14,0,0,1,1.4.85,3.39,3.39,0,0,1,1,2.49q0,2.56-2.85,3.26a4.36,4.36,0,0,1,1.78.61A3,3,0,0,1,166.06,107.4ZM158.18,105h3a3.21,3.21,0,0,0,2.12-.63,2.42,2.42,0,0,0,0-3.5,2.9,2.9,0,0,0-2-.64h-3.15Zm6.27,4a2.33,2.33,0,0,0-.39-1.35,2.57,2.57,0,0,0-1.1-.89,4.11,4.11,0,0,0-1.67-.32h-3.11v5.3h3a4,4,0,0,0,1.7-.34,2.53,2.53,0,0,0,1.57-2.4Zm16.22.9a3.92,3.92,0,0,1-.75,1,3.66,3.66,0,0,1-2.64,1,5.26,5.26,0,0,1-2.13-.41,4.57,4.57,0,0,1-1.66-1.2,5.19,5.19,0,0,1-1.07-1.9,7.55,7.55,0,0,1-.37-2.43,8.23,8.23,0,0,1,.36-2.51,5.57,5.57,0,0,1,1-1.91,4.46,4.46,0,0,1,1.63-1.21,5.18,5.18,0,0,1,2.1-.42,4.37,4.37,0,0,1,2.83.91,3.38,3.38,0,0,1,.91,1,6.79,6.79,0,0,1,.52,1.7l0,.28h1.69v-5.1h-1.6l0,1.64a7.36,7.36,0,0,0-1.36-1.15,5,5,0,0,0-1.5-.65,7,7,0,0,0-1.76-.2,7.58,7.58,0,0,0-2.86.52,6.07,6.07,0,0,0-2.21,1.55,7.26,7.26,0,0,0-1.42,2.44,9.51,9.51,0,0,0-.49,3.13,9.17,9.17,0,0,0,.49,3.1,6.48,6.48,0,0,0,1.45,2.36,6.4,6.4,0,0,0,2.3,1.47,8.58,8.58,0,0,0,3,.51,7.31,7.31,0,0,0,3.11-.61,4.63,4.63,0,0,0,2.06-1.77,5.77,5.77,0,0,0,.86-2.79h-2A8.82,8.82,0,0,1,180.67,109.92Zm12.38-4.52,5.86-5.2H200V98.77h-5.46v1.43h1.75l-5.6,5.1v-5.1h2.14V98.77h-6.07v1.43h2v11.56h-2v1.42h6.07v-1.42h-2.14v-6.33l5.71,6.33h-1.86v1.42h5.83v-1.42h-1.49Zm13.75,5.88V100.2h2V98.77h-5.92v1.43h2v11.56h-2v1.42h4.65l7.09-12.51v11.09h-2v1.42h5.85v-1.42h-2V100.2h2V98.77h-4.64ZM226.63,97a5.27,5.27,0,0,0,2.59.5,5.19,5.19,0,0,0,2.62-.5,2.69,2.69,0,0,0,1.32-2.2h-2a1.8,1.8,0,0,1-.7,1,1.91,1.91,0,0,1-1.21.41,1.86,1.86,0,0,1-1.18-.41,1.94,1.94,0,0,1-.72-1h-2a3.06,3.06,0,0,0,.41,1.28A2.76,2.76,0,0,0,226.63,97ZM237,100.2V98.77h-4.6l-7.19,12.84V100.2h2.09V98.77h-5.85v1.43h1.88v11.56h-1.88v1.42H226l7.13-13v11.54h-2v1.42H237v-1.42h-1.85V100.2ZM75.38,131.33l5.86-5.2h1.12V124.7H76.89v1.43h1.75l-5.59,5.1v-5.1h2.14V124.7H69.12v1.43h2v11.56h-2v1.42h6.07v-1.42H73.05v-6.33l5.7,6.33H76.89v1.42h5.84v-1.42H81.24Zm21.55,2a3.72,3.72,0,0,1,.38,1.74,3.64,3.64,0,0,1-.56,2,3.92,3.92,0,0,1-1.62,1.43,5.07,5.07,0,0,1-1.38.45,10.76,10.76,0,0,1-1.9.13H85.13v-1.42h2V126.13h-2V124.7h7a9.08,9.08,0,0,1,2.33.23,3,3,0,0,1,1.41.85,3.38,3.38,0,0,1,1,2.49q0,2.56-2.85,3.26a4.5,4.5,0,0,1,1.78.6A3,3,0,0,1,96.93,133.33Zm-7.87-2.43h3a3.21,3.21,0,0,0,2.12-.63,2.2,2.2,0,0,0,.76-1.78,2.16,2.16,0,0,0-.74-1.72,2.9,2.9,0,0,0-2-.64H89.06Zm6.27,4a2.33,2.33,0,0,0-.39-1.35,2.48,2.48,0,0,0-1.11-.89,4.06,4.06,0,0,0-1.66-.32H89.06v5.3h3a4,4,0,0,0,1.7-.34,2.57,2.57,0,0,0,1.57-2.4Zm19.61,2.74h1.56v1.42h-5.81v-1.42h2l-1.23-3.22H105l-1.34,3.22h2.13v1.42h-5.68v-1.42h1.58l5.62-13h2.16Zm-4-4.73-2.61-6.21L105.65,133Zm19.53-5.43a5,5,0,0,1,.2,1.39,4.5,4.5,0,0,1-.58,2.31,3.85,3.85,0,0,1-1.67,1.52,5.76,5.76,0,0,1-2.54.53h-3v4.41h2.55v1.42H118.9v-1.42h2V126.13h-2V124.7h6.42a12,12,0,0,1,2.19.15,4.12,4.12,0,0,1,1.44.61,3.5,3.5,0,0,1,.89.87A4.47,4.47,0,0,1,130.43,127.53ZM128.64,129a2.68,2.68,0,0,0-.82-2.12,3.54,3.54,0,0,0-2.39-.72h-2.64v5.64h2.64a4.14,4.14,0,0,0,2.35-.63A2.52,2.52,0,0,0,128.64,129Zm5,.36h1.77v-3.2H139v11.56h-2.36v1.42h6.63v-1.42H141V126.13h3.67v3.2h1.77V124.7H133.61Zm29.78,8.36h1.55v1.42h-5.81v-1.42h2.05L160,134.47h-6.5l-1.34,3.22h2.14v1.42h-5.68v-1.42h1.57l5.62-13h2.16Zm-4-4.73-2.62-6.21L154.1,133Zm10.5-6.83h1.94v.17c0,.29-.08,1.14-.15,2.56-.07,1.65-.21,3.39-.41,5.19q-.16,1.38-.39,2.49c-.18.85-.52,1.28-1,1.28-.62,0-.95-.78-1-2.34H167.3v.2a5.19,5.19,0,0,0,.69,2.77,2.09,2.09,0,0,0,1.86,1,2.28,2.28,0,0,0,1.44-.47,3.53,3.53,0,0,0,1-1.46,11.58,11.58,0,0,0,.64-2.6q.32-2.2.71-6.34c.1-1.24.16-2,.17-2.23v-.19h4.71v11.54h-2.07v1.44h5.92v-1.44h-1.92V126.13h1.92V124.7H169.85ZM58.38,94.8v32.33a1.12,1.12,0,0,1-.32.77l-7.71,7.69v0h0l-8,8v0h0l-7.27,7.26a1.06,1.06,0,0,1-.76.31,1.07,1.07,0,0,1-.76-.31l-23-22.95a1.12,1.12,0,0,1-.32-.77V94.8a1.08,1.08,0,0,1,1.08-1.08h46A1.08,1.08,0,0,1,58.38,94.8Zm-2.15,29.72V97.41l-5.88,5.92v15.26ZM42.36,108.34l5.84-5.89V95.87H42.36Zm8-8.06,4.37-4.41H50.35ZM42.8,111l5.4,5.46V105.5Zm-2.59,31.73V111h0V95.87H12.38v30.82L34.3,148.57Zm2.15-2.15,5.84-5.83V119.47l-5.84-5.9Zm8-8,5.43-5.42-5.43-5.49Z" transform="translate(-10.23 -93.72)"/></svg>