<svg id="Layer_1" data-name="Layer 1" xmlns="http://www.w3.org/2000/svg" viewBox="0 0 48.14 57.44"><defs><style>.cls-1{fill:#1d1d1b;}</style></defs><path class="cls-1" d="M48.15,1.08V33.41a1.12,1.12,0,0,1-.32.77l-7.71,7.69h0l-8,8h0l-7.27,7.26a1.09,1.09,0,0,1-1.52,0l-23-23A1.12,1.12,0,0,1,0,33.41V1.08A1.08,1.08,0,0,1,1.09,0h46A1.08,1.08,0,0,1,48.15,1.08ZM46,30.8V3.69L40.12,9.61V24.87ZM32.13,14.62,38,8.73V2.15H32.13Zm8-8.06L44.5,2.15H40.12ZM32.57,17.28,38,22.74v-11ZM30,49V17.28h0V2.15H2.15V33L24.07,54.85Zm2.15-2.15L38,41V25.75l-5.84-5.9Zm8-8,5.43-5.42L40.13,28Z" transform="translate(-0.01 0)"/></svg>